<!DOCTYPE svg PUBLIC "-//W3C//DTD SVG 1.1//EN" "http://www.w3.org/Graphics/SVG/1.1/DTD/svg11.dtd">
<!-- Uploaded to: SVG Repo, www.svgrepo.com, Transformed by: SVG Repo Mixer Tools -->
<svg xmlns="http://www.w3.org/2000/svg" xmlns:xlink="http://www.w3.org/1999/xlink" version="1.1" id="Capa_1" viewBox="0 0 472.903 472.903" xml:space="preserve" width="800px" height="800px" fill="#000000">
<g id="SVGRepo_bgCarrier" stroke-width="0"/>
<g id="SVGRepo_tracerCarrier" stroke-linecap="round" stroke-linejoin="round"/>
<g id="SVGRepo_iconCarrier"> <g> <polygon style="fill:#5389A9;" points="343.951,435.401 313.951,465.401 283.951,465.401 263.951,450.401 283.951,435.401 "/> <polygon style="fill:#5CA8D3;" points="283.951,435.401 283.951,465.401 158.951,465.401 128.951,435.401 "/> <polygon style="fill:#3F4C53;" points="158.951,252.491 158.951,312.491 136.941,342.491 114.931,312.491 123.951,282.491 "/> <polygon style="fill:#3F4C53;" points="348.951,282.491 357.971,312.491 335.961,342.491 313.951,312.491 313.951,252.491 "/> <path style="fill:#FDCE6E;" d="M124.632,11.883c-5.858,5.858-5.858,15.355,0,21.213l54.393,54.393v50l42.427-50l-75.607-75.607 C139.987,6.025,130.49,6.025,124.632,11.883z"/> <path style="fill:#FDCE6E;" d="M36.958,11.883c-5.858,5.858-5.858,15.355,0,21.213l54.393,54.393v50l42.427-50L58.172,11.883 C52.314,6.025,42.816,6.025,36.958,11.883z"/> <path style="fill:#FDCE6E;" d="M348.271,11.883c5.858,5.858,5.858,15.355,0,21.213l-54.393,54.393v50l-42.427-50l75.607-75.607 C332.916,6.025,342.413,6.025,348.271,11.883z"/> <path style="fill:#FDCE6E;" d="M435.944,11.883c5.858,5.858,5.858,15.355,0,21.213l-54.393,54.393v50l-42.427-50l75.607-75.607 C420.589,6.025,430.086,6.025,435.944,11.883z"/> <path style="fill:#EF431D;" d="M425.261,193.542l-16.31-106.05h-30l-60,195h30C398.451,282.491,432.792,242.461,425.261,193.542z"/> <path style="fill:#FD7555;" d="M395.261,193.541c7.53,48.92-26.81,88.95-76.31,88.95h-195c-49.5,0-83.84-40.03-76.31-88.95 l16.31-106.05h315L395.261,193.541z"/> <polygon style="fill:#496A7E;" points="68.951,465.401 158.951,465.401 158.951,312.491 114.931,312.491 "/> <polygon style="fill:#496A7E;" points="357.971,312.491 313.951,312.491 313.951,465.401 403.951,465.401 "/> <path style="fill:#FD7555;" d="M272.341,363.503l-35.89-48.1v120c24.79,0,44.88-20.09,44.88-44.88 C281.331,380.382,278.021,371.023,272.341,363.503z"/> <path style="fill:#FDA162;" d="M248.351,363.502c1.88,7.52,2.98,16.88,2.98,27.02c0,24.79-6.66,44.88-14.88,44.88 c-24.79,0-44.88-20.09-44.88-44.88c0-10.14,3.31-19.5,8.99-27.02l35.89-48.1L248.351,363.502z"/> <circle cx="128.951" cy="199.992" r="7.5"/> <circle cx="343.951" cy="139.992" r="7.5"/> <circle cx="158.951" cy="229.992" r="7.5"/> <path d="M433.951,457.903h-24.423l-50.642-168.417c22.066-2.261,41.441-12.088,55.3-28.242 c15.903-18.537,22.471-42.987,18.492-68.847L416.365,86.351c-0.563-3.658-3.711-6.359-7.413-6.359h-51.723l62.805-62.806 c2.925-2.924,7.683-2.923,10.607-0.001c2.924,2.925,2.924,7.684,0.001,10.607l-24.396,24.396c-2.93,2.929-2.93,7.678-0.001,10.606 c2.93,2.93,7.679,2.929,10.606,0.001l24.397-24.396c8.771-8.772,8.771-23.047-0.001-31.82c-8.771-8.771-23.047-8.771-31.82,0 l-73.413,73.413h-66.458l62.805-62.806c2.925-2.924,7.683-2.923,10.607-0.001c2.924,2.925,2.924,7.684,0.001,10.607l-24.396,24.396 c-2.93,2.929-2.93,7.678-0.001,10.606c2.93,2.93,7.679,2.929,10.606,0.001l24.397-24.396c8.771-8.772,8.771-23.047-0.001-31.82 c-8.771-8.771-23.047-8.771-31.82,0l-73.413,73.413h-23.779L151.148,6.579c-8.771-8.771-23.047-8.771-31.82,0.001 c-8.771,8.772-8.771,23.047,0.001,31.82l24.397,24.396c2.928,2.928,7.677,2.929,10.606-0.001c2.929-2.929,2.929-7.678-0.001-10.606 l-24.396-24.396c-2.924-2.925-2.924-7.684-0.001-10.607c2.926-2.924,7.684-2.924,10.607,0l62.806,62.806h-66.458L63.475,6.579 c-8.771-8.771-23.047-8.771-31.82,0.001c-8.771,8.772-8.771,23.047,0.001,31.82l24.393,24.392 c2.928,2.928,7.677,2.929,10.606-0.001c2.929-2.929,2.929-7.678-0.001-10.606L42.262,27.793c-2.924-2.925-2.924-7.684-0.001-10.607 c2.926-2.924,7.684-2.924,10.607,0l62.806,62.806H63.951c-3.702,0-6.85,2.701-7.413,6.359L40.224,192.398 c-3.979,25.859,2.589,50.31,18.492,68.847c13.859,16.154,33.234,25.981,55.3,28.242L63.375,457.903H38.951 c-4.143,0-7.5,3.357-7.5,7.5s3.357,7.5,7.5,7.5h29.976c0.051,0,334.997,0,334.997,0c0.051,0,30.027,0,30.027,0 c4.143,0,7.5-3.357,7.5-7.5S438.094,457.903,433.951,457.903z M70.101,251.478c-13.008-15.163-18.354-35.334-15.051-56.799 l15.336-99.688h332.131l15.336,99.688c3.303,21.465-2.043,41.636-15.051,56.799c-13.009,15.163-32.133,23.514-53.851,23.514h-225 C102.234,274.992,83.11,266.641,70.101,251.478z M129.528,289.992h213.846l50.49,167.911h-72.413V312.492 c0-4.143-3.357-7.5-7.5-7.5s-7.5,3.357-7.5,7.5v115.411h-33.355c9.703-9.513,15.738-22.754,15.738-37.383 c0-11.525-3.633-22.43-10.48-31.499l-35.892-48.104c-1.415-1.897-3.644-3.015-6.011-3.015s-4.596,1.117-6.011,3.015l-35.866,48.07 c-6.873,9.103-10.506,20.007-10.506,31.532c0,14.629,6.035,27.87,15.738,37.383h-33.355V312.492c0-4.143-3.357-7.5-7.5-7.5 s-7.5,3.357-7.5,7.5v145.411H79.039L129.528,289.992z M166.451,442.903h140v15h-140V442.903z M199.069,390.52 c0-8.237,2.586-16.016,7.502-22.528l29.881-40.048l29.906,40.081c4.891,6.479,7.477,14.258,7.477,22.495 c0,20.613-16.77,37.383-37.383,37.383S199.069,411.133,199.069,390.52z"/> </g> </g>
</svg>